<svg xmlns="http://www.w3.org/2000/svg" viewBox="0 0 512 512" width="512" height="512">
  <rect width="512" height="512" fill="#0A0A0E"/>
  <g transform="translate(106,106) scale(1.5)">
    <defs>
      <clipPath id="aTri">
        <path d="M 100 14 L 178 178 L 156 178 L 138 142 L 62 142 L 44 178 L 22 178 Z M 100 60 L 80 124 L 120 124 Z"/>
      </clipPath>
    </defs>
    <g clip-path="url(#aTri)">
      <rect x="0" y="26"  width="200" height="3" fill="#F5EFE5"/>
      <rect x="0" y="44"  width="200" height="3" fill="#F5EFE5" opacity="0.85"/>
      <rect x="0" y="62"  width="200" height="3" fill="#F5EFE5" opacity="0.75"/>
      <rect x="0" y="80"  width="200" height="3" fill="#F5EFE5" opacity="0.7"/>
      <rect x="0" y="98"  width="200" height="6" fill="#FF1F8E"/>
      <rect x="0" y="116" width="200" height="3" fill="#F5EFE5" opacity="0.7"/>
      <rect x="0" y="134" width="200" height="3" fill="#F5EFE5" opacity="0.7"/>
      <rect x="0" y="152" width="200" height="3" fill="#F5EFE5" opacity="0.65"/>
      <rect x="0" y="170" width="200" height="3" fill="#F5EFE5" opacity="0.55"/>
    </g>
    <circle cx="100" cy="14" r="1.6" fill="#F5EFE5"/>
  </g>
</svg>
