<svg xmlns="http://www.w3.org/2000/svg" viewBox="614.64 410.39 270.7 282.75" preserveAspectRatio="xMidYMid meet">
<defs>
<clipPath id="qyvSym"><path d="M 757.36 410.49 C 768.63 411.16 778.54 417.4 779.75 425.04 C 780.8 433.67 771.48 440.7 758.91 440.18 C 746.15 439.96 736 432.25 736.23 423.5 C 736.51 415.79 746.01 410.23 757.36 410.49 M 796.01 670.47 C 805.19 669 810.83 672.71 808.89 678.31 C 806.97 683.12 798.77 688.17 790.66 689.88 C 782.14 691.34 775.83 688.78 776.83 683.69 C 777.77 677.84 786.39 671.74 796.01 670.47 Z M 831.87 610.72 C 833.54 609.66 835.28 608.74 837 608.04 C 843.37 602.39 848.41 594.3 851.04 585.39 C 853.75 575.52 853.46 565.37 850.3 556.95 C 844.74 549.38 842.1 538.31 844.23 527.46 C 847.05 511.09 859.25 503.07 870.72 508.89 C 880.41 514.5 886.39 530.2 884.92 544.66 C 883.5 554.28 878.99 561.79 873.07 564.85 C 867.99 570.14 863.57 578.45 860.98 587.79 C 859.49 592.87 858.66 597.88 858.52 602.48 C 857.9 612.83 861.13 611.46 862.14 618.7 C 862.79 624.81 860.49 632.52 855.6 639.79 C 848.68 649.66 837.48 657.3 827.82 657.82 C 806.76 657.12 818.07 639.97 807.61 628.27 C 805.03 625.31 801.7 622.74 797.78 620.73 C 793.12 618.42 787.97 616.96 782.6 616.47 C 763.79 614.48 750.31 624.29 745.09 641.32 C 743.66 645.65 743.31 649.95 743.78 653.98 C 744.07 657.08 747.64 664.76 747.64 664.75 C 754.23 670.04 756.85 677 753.92 683.25 C 749.47 691.48 734.92 695.23 720.62 692.65 C 706.29 689.21 695.79 679.89 697.5 670.76 C 698.43 666.61 701.37 663.11 705.73 660.65 C 713.35 656.08 715.47 659.02 723.33 650.96 C 726.64 647.38 729.2 642.93 730.66 637.89 C 738.99 608.37 712.78 605.25 719.34 579.29 C 724.14 560.9 743.27 549.85 761.93 554.84 C 765.15 555.63 768.25 556.84 771.2 558.54 C 795.3 572.51 777.44 592.94 805.61 608.31 C 813.95 612.66 823.39 613.46 831.95 610.66 Z M 701.48 498.09 C 715.45 505.64 727.86 504.42 738.62 494.57 C 749.29 485.01 744.89 483.83 751.92 475.2 C 755.5 470.85 760.79 467.65 769.24 465.82 C 807.26 459.17 827.2 518.64 788.19 528.67 C 777.84 531.36 770.3 530.04 763.81 526.29 C 753.91 520.62 758.48 519.72 745.32 516.27 C 730.46 512.48 719.22 517.74 710.25 532.21 C 706.82 543.89 697.71 553.05 686.51 556 C 669.76 560.66 653.56 550.02 649.8 532.65 C 647.71 521.82 650.95 510.68 657.63 502.57 C 668.18 490.39 672.8 487.89 675.23 470.28 C 676.15 464.45 675.75 459.14 673.96 454.88 C 671.29 448.23 669.52 449.82 665.76 446.15 C 662.51 443.03 661.36 438.62 663.06 433.4 C 666.66 423.99 679.74 414.65 692.87 411.54 C 706.93 409.14 717.6 414.62 716.43 424.84 C 715.97 428.91 714 433 710.75 436.74 C 703.46 445.54 699.96 442.65 693.28 454.39 C 690.84 458.88 689.25 463.88 688.78 469.03 C 687.68 483.66 691.98 489.52 701.48 498.09 Z M 642.79 577.28 C 657.11 578.04 670.33 592.48 671.45 608.96 C 672.96 624.59 662.59 634.72 649.24 632.37 C 637.17 629.54 626.15 616.52 623.64 602.57 C 621.77 587.89 629.89 576.25 642.79 577.28 Z M 631.95 465.09 C 639.91 462.74 645.36 468.85 643.56 479.2 C 642.06 490.04 633.51 500.2 625.01 501.55 C 617.46 502.94 613.38 495.91 615.4 486.06 C 617.71 476.81 624.88 467.59 631.95 465.09 Z M 834.67 445.9 C 841.99 447.95 849.35 455.45 851.31 462.86 C 853.23 470.91 848.61 476.39 840.75 474.92 C 832.39 473.62 824.22 465.33 822.89 456.78 C 821.45 448.76 826.8 443.99 834.67 445.9 Z"/></clipPath>
<linearGradient id="qyvGrad" gradientTransform="matrix(0.63394,0,0,-0.63394,613.38,1258.78)" x1="435.93" y1="1331.21" x2="-4.46" y2="898.83" gradientUnits="userSpaceOnUse">
<stop offset="0" stop-color="#0DEFF6"/>
<stop offset="0.22" stop-color="#0DEFF6"/>
<stop offset="0.42" stop-color="#57A5F7"/>
<stop offset="0.55" stop-color="#7F7DF7"/>
<stop offset="0.7" stop-color="#B944F8"/>
<stop offset="0.85" stop-color="#E71EFA"/>
<stop offset="1" stop-color="#FC01F9"/>
</linearGradient>
</defs>
<g clip-path="url(#qyvSym)">
<rect x="614.64" y="410.39" width="270.7" height="282.75" fill="url(#qyvGrad)"/>
</g>
</svg>
