<svg xmlns="http://www.w3.org/2000/svg" xmlns:xlink="http://www.w3.org/1999/xlink" width="2000" zoomAndPan="magnify" viewBox="0 0 1500 1499.999933" height="2000" preserveAspectRatio="xMidYMid meet" version="1.0"><defs><g/><clipPath id="bf33ef43a3"><path d="M 614.648438 410.394531 L 885.339844 410.394531 L 885.339844 693.144531 L 614.648438 693.144531 Z M 614.648438 410.394531 " clip-rule="nonzero"/></clipPath><clipPath id="e86a1b9710"><path d="M 757.359375 410.488281 C 768.632812 411.164062 778.535156 417.402344 779.746094 425.035156 C 780.796875 433.671875 771.484375 440.695312 758.90625 440.175781 C 746.148438 439.964844 735.996094 432.246094 736.230469 423.503906 C 736.511719 415.792969 746.007812 410.226562 757.359375 410.488281 M 796.011719 670.472656 C 805.1875 668.996094 810.828125 672.710938 808.894531 678.3125 C 806.972656 683.121094 798.765625 688.171875 790.660156 689.878906 C 782.140625 691.34375 775.828125 688.78125 776.828125 683.691406 C 777.769531 677.84375 786.394531 671.742188 796.011719 670.472656 Z M 831.867188 610.71875 C 833.542969 609.660156 835.277344 608.738281 836.996094 608.035156 C 843.367188 602.386719 848.40625 594.296875 851.042969 585.386719 C 853.75 575.515625 853.460938 565.367188 850.304688 556.945312 C 850.320312 557.054688 850.320312 557.054688 850.347656 557.054688 C 844.738281 549.382812 842.101562 538.308594 844.230469 527.460938 C 847.050781 511.085938 859.253906 503.074219 870.722656 508.894531 C 880.410156 514.5 886.386719 530.199219 884.921875 544.65625 C 883.496094 554.277344 878.988281 561.789062 873.066406 564.851562 C 873.097656 564.859375 873.097656 564.859375 873.125 564.859375 C 867.996094 570.140625 863.566406 578.445312 860.984375 587.789062 C 859.488281 592.867188 858.664062 597.875 858.523438 602.476562 C 857.902344 612.828125 861.128906 611.464844 862.144531 618.699219 C 862.792969 624.808594 860.492188 632.519531 855.601562 639.789062 C 848.675781 649.660156 837.484375 657.300781 827.824219 657.820312 C 806.757812 657.121094 818.066406 639.972656 807.613281 628.265625 C 805.027344 625.3125 801.699219 622.742188 797.78125 620.734375 C 793.121094 618.417969 787.96875 616.957031 782.597656 616.472656 C 763.789062 614.484375 750.3125 624.289062 745.089844 641.324219 C 743.65625 645.652344 743.308594 649.953125 743.777344 653.976562 C 744.074219 657.078125 747.636719 664.761719 747.636719 664.753906 C 754.230469 670.042969 756.847656 677.003906 753.917969 683.253906 C 749.46875 691.476562 734.917969 695.234375 720.617188 692.652344 C 706.292969 689.210938 695.785156 679.886719 697.503906 670.757812 C 698.425781 666.605469 701.371094 663.113281 705.726562 660.648438 C 713.351562 656.082031 715.46875 659.023438 723.332031 650.964844 C 726.640625 647.378906 729.203125 642.929688 730.664062 637.886719 C 738.988281 608.371094 712.78125 605.246094 719.34375 579.292969 C 724.136719 560.902344 743.269531 549.851562 761.933594 554.835938 C 761.957031 554.847656 761.957031 554.847656 761.988281 554.855469 C 765.152344 555.628906 768.253906 556.84375 771.199219 558.539062 C 795.296875 572.511719 777.4375 592.941406 805.605469 608.308594 C 813.953125 612.65625 823.386719 613.457031 831.945312 610.660156 C 831.875 610.722656 831.875 610.722656 831.867188 610.71875 Z M 701.484375 498.085938 C 715.445312 505.640625 727.859375 504.417969 738.617188 494.574219 C 749.285156 485.011719 744.890625 483.828125 751.921875 475.195312 C 755.503906 470.851562 760.785156 467.648438 769.242188 465.816406 C 807.257812 459.167969 827.195312 518.644531 788.191406 528.671875 C 777.835938 531.355469 770.300781 530.042969 763.808594 526.289062 C 753.914062 520.617188 758.476562 519.722656 745.316406 516.273438 C 730.464844 512.480469 719.222656 517.742188 710.253906 532.210938 C 706.824219 543.894531 697.714844 553.046875 686.511719 555.996094 C 686.5 555.996094 686.5 555.996094 686.488281 556.003906 C 669.757812 560.65625 653.558594 550.019531 649.800781 532.652344 C 647.707031 521.820312 650.949219 510.675781 657.628906 502.566406 C 668.179688 490.394531 672.800781 487.890625 675.226562 470.28125 C 676.148438 464.449219 675.753906 459.136719 673.960938 454.882812 C 671.285156 448.230469 669.523438 449.816406 665.757812 446.148438 C 662.511719 443.027344 661.355469 438.621094 663.0625 433.398438 C 666.65625 423.992188 679.742188 414.652344 692.871094 411.539062 C 706.925781 409.144531 717.601562 414.621094 716.429688 424.839844 C 715.972656 428.910156 714 433.003906 710.753906 436.738281 C 703.457031 445.539062 699.957031 442.652344 693.28125 454.394531 C 690.84375 458.882812 689.246094 463.882812 688.78125 469.03125 C 687.683594 483.664062 691.976562 489.515625 701.484375 498.085938 Z M 642.789062 577.277344 C 657.109375 578.039062 670.328125 592.484375 671.445312 608.957031 C 672.957031 624.59375 662.585938 634.71875 649.238281 632.367188 C 637.171875 629.539062 626.148438 616.523438 623.636719 602.566406 C 621.769531 587.890625 629.894531 576.25 642.789062 577.277344 Z M 631.949219 465.09375 C 639.910156 462.738281 645.355469 468.847656 643.5625 479.195312 C 642.058594 490.039062 633.507812 500.203125 625.011719 501.554688 C 617.464844 502.941406 613.375 495.910156 615.398438 486.058594 C 617.710938 476.808594 624.878906 467.59375 631.949219 465.09375 Z M 834.671875 445.898438 C 841.992188 447.945312 849.347656 455.453125 851.3125 462.855469 C 853.226562 470.910156 848.609375 476.386719 840.75 474.921875 C 832.394531 473.621094 824.222656 465.328125 822.890625 456.777344 C 821.453125 448.757812 826.804688 443.992188 834.671875 445.898438 Z M 834.671875 445.898438 " clip-rule="nonzero"/></clipPath><linearGradient x1="435.932304" gradientTransform="matrix(0.63394, 0, 0, -0.63394, 613.380866, 1258.775134)" y1="1331.205968" x2="-4.461863" gradientUnits="userSpaceOnUse" y2="898.828119" id="b3e8e4dcb0"><stop stop-opacity="1" stop-color="rgb(5.099487%, 93.728638%, 96.469116%)" offset="0"/><stop stop-opacity="1" stop-color="rgb(5.099487%, 93.728638%, 96.469116%)" offset="0.125"/><stop stop-opacity="1" stop-color="rgb(5.099487%, 93.728638%, 96.469116%)" offset="0.1875"/><stop stop-opacity="1" stop-color="rgb(5.099487%, 93.728638%, 96.469116%)" offset="0.21875"/><stop stop-opacity="1" stop-color="rgb(5.099487%, 93.728638%, 96.469116%)" offset="0.226563"/><stop stop-opacity="1" stop-color="rgb(5.465698%, 93.363953%, 96.473694%)" offset="0.230469"/><stop stop-opacity="1" stop-color="rgb(5.831909%, 92.999268%, 96.478271%)" offset="0.234375"/><stop stop-opacity="1" stop-color="rgb(6.477356%, 92.355347%, 96.485901%)" offset="0.238281"/><stop stop-opacity="1" stop-color="rgb(7.124329%, 91.712952%, 96.495056%)" offset="0.242188"/><stop stop-opacity="1" stop-color="rgb(7.769775%, 91.069031%, 96.502686%)" offset="0.246094"/><stop stop-opacity="1" stop-color="rgb(8.416748%, 90.42511%, 96.510315%)" offset="0.25"/><stop stop-opacity="1" stop-color="rgb(9.063721%, 89.781189%, 96.517944%)" offset="0.253906"/><stop stop-opacity="1" stop-color="rgb(9.710693%, 89.137268%, 96.5271%)" offset="0.257812"/><stop stop-opacity="1" stop-color="rgb(10.35614%, 88.493347%, 96.534729%)" offset="0.261719"/><stop stop-opacity="1" stop-color="rgb(11.003113%, 87.849426%, 96.543884%)" offset="0.265625"/><stop stop-opacity="1" stop-color="rgb(11.64856%, 87.205505%, 96.551514%)" offset="0.269531"/><stop stop-opacity="1" stop-color="rgb(12.295532%, 86.561584%, 96.559143%)" offset="0.273438"/><stop stop-opacity="1" stop-color="rgb(12.940979%, 85.917664%, 96.566772%)" offset="0.277344"/><stop stop-opacity="1" stop-color="rgb(13.587952%, 85.273743%, 96.575928%)" offset="0.28125"/><stop stop-opacity="1" stop-color="rgb(14.234924%, 84.629822%, 96.583557%)" offset="0.285156"/><stop stop-opacity="1" stop-color="rgb(14.881897%, 83.987427%, 96.592712%)" offset="0.289062"/><stop stop-opacity="1" stop-color="rgb(15.527344%, 83.343506%, 96.600342%)" offset="0.292969"/><stop stop-opacity="1" stop-color="rgb(16.174316%, 82.699585%, 96.607971%)" offset="0.296875"/><stop stop-opacity="1" stop-color="rgb(16.819763%, 82.055664%, 96.615601%)" offset="0.300781"/><stop stop-opacity="1" stop-color="rgb(17.466736%, 81.411743%, 96.624756%)" offset="0.304688"/><stop stop-opacity="1" stop-color="rgb(18.112183%, 80.767822%, 96.632385%)" offset="0.308594"/><stop stop-opacity="1" stop-color="rgb(18.759155%, 80.123901%, 96.641541%)" offset="0.3125"/><stop stop-opacity="1" stop-color="rgb(19.406128%, 79.47998%, 96.64917%)" offset="0.316406"/><stop stop-opacity="1" stop-color="rgb(20.053101%, 78.83606%, 96.656799%)" offset="0.320312"/><stop stop-opacity="1" stop-color="rgb(20.698547%, 78.192139%, 96.664429%)" offset="0.324219"/><stop stop-opacity="1" stop-color="rgb(21.34552%, 77.548218%, 96.673584%)" offset="0.328125"/><stop stop-opacity="1" stop-color="rgb(21.990967%, 76.904297%, 96.681213%)" offset="0.332031"/><stop stop-opacity="1" stop-color="rgb(22.637939%, 76.261902%, 96.690369%)" offset="0.335938"/><stop stop-opacity="1" stop-color="rgb(23.284912%, 75.617981%, 96.697998%)" offset="0.339844"/><stop stop-opacity="1" stop-color="rgb(23.931885%, 74.97406%, 96.705627%)" offset="0.34375"/><stop stop-opacity="1" stop-color="rgb(24.577332%, 74.330139%, 96.713257%)" offset="0.347656"/><stop stop-opacity="1" stop-color="rgb(25.224304%, 73.686218%, 96.722412%)" offset="0.351563"/><stop stop-opacity="1" stop-color="rgb(25.869751%, 73.042297%, 96.730042%)" offset="0.355469"/><stop stop-opacity="1" stop-color="rgb(26.516724%, 72.398376%, 96.739197%)" offset="0.359375"/><stop stop-opacity="1" stop-color="rgb(27.16217%, 71.754456%, 96.746826%)" offset="0.363281"/><stop stop-opacity="1" stop-color="rgb(27.809143%, 71.110535%, 96.754456%)" offset="0.367188"/><stop stop-opacity="1" stop-color="rgb(28.456116%, 70.466614%, 96.762085%)" offset="0.371094"/><stop stop-opacity="1" stop-color="rgb(29.103088%, 69.822693%, 96.77124%)" offset="0.375"/><stop stop-opacity="1" stop-color="rgb(29.748535%, 69.178772%, 96.77887%)" offset="0.378906"/><stop stop-opacity="1" stop-color="rgb(30.395508%, 68.536377%, 96.788025%)" offset="0.382813"/><stop stop-opacity="1" stop-color="rgb(31.040955%, 67.892456%, 96.795654%)" offset="0.386719"/><stop stop-opacity="1" stop-color="rgb(31.687927%, 67.248535%, 96.803284%)" offset="0.390625"/><stop stop-opacity="1" stop-color="rgb(32.333374%, 66.604614%, 96.810913%)" offset="0.394531"/><stop stop-opacity="1" stop-color="rgb(32.980347%, 65.960693%, 96.820068%)" offset="0.398438"/><stop stop-opacity="1" stop-color="rgb(33.627319%, 65.316772%, 96.827698%)" offset="0.402344"/><stop stop-opacity="1" stop-color="rgb(34.274292%, 64.672852%, 96.836853%)" offset="0.40625"/><stop stop-opacity="1" stop-color="rgb(34.919739%, 64.028931%, 96.844482%)" offset="0.410156"/><stop stop-opacity="1" stop-color="rgb(35.566711%, 63.38501%, 96.852112%)" offset="0.414062"/><stop stop-opacity="1" stop-color="rgb(36.212158%, 62.741089%, 96.859741%)" offset="0.417969"/><stop stop-opacity="1" stop-color="rgb(36.859131%, 62.097168%, 96.868896%)" offset="0.421875"/><stop stop-opacity="1" stop-color="rgb(37.504578%, 61.453247%, 96.876526%)" offset="0.425781"/><stop stop-opacity="1" stop-color="rgb(38.15155%, 60.810852%, 96.885681%)" offset="0.429688"/><stop stop-opacity="1" stop-color="rgb(38.798523%, 60.166931%, 96.893311%)" offset="0.433594"/><stop stop-opacity="1" stop-color="rgb(39.445496%, 59.52301%, 96.90094%)" offset="0.4375"/><stop stop-opacity="1" stop-color="rgb(40.090942%, 58.879089%, 96.908569%)" offset="0.441406"/><stop stop-opacity="1" stop-color="rgb(40.737915%, 58.235168%, 96.917725%)" offset="0.445312"/><stop stop-opacity="1" stop-color="rgb(41.383362%, 57.591248%, 96.925354%)" offset="0.449219"/><stop stop-opacity="1" stop-color="rgb(42.030334%, 56.947327%, 96.934509%)" offset="0.453125"/><stop stop-opacity="1" stop-color="rgb(42.677307%, 56.303406%, 96.942139%)" offset="0.457031"/><stop stop-opacity="1" stop-color="rgb(43.32428%, 55.659485%, 96.949768%)" offset="0.460938"/><stop stop-opacity="1" stop-color="rgb(43.969727%, 55.015564%, 96.957397%)" offset="0.464844"/><stop stop-opacity="1" stop-color="rgb(44.616699%, 54.371643%, 96.966553%)" offset="0.46875"/><stop stop-opacity="1" stop-color="rgb(45.262146%, 53.727722%, 96.974182%)" offset="0.472656"/><stop stop-opacity="1" stop-color="rgb(45.909119%, 53.085327%, 96.983337%)" offset="0.476562"/><stop stop-opacity="1" stop-color="rgb(46.554565%, 52.441406%, 96.990967%)" offset="0.480469"/><stop stop-opacity="1" stop-color="rgb(47.201538%, 51.797485%, 96.998596%)" offset="0.484375"/><stop stop-opacity="1" stop-color="rgb(47.848511%, 51.153564%, 97.006226%)" offset="0.488281"/><stop stop-opacity="1" stop-color="rgb(48.495483%, 50.509644%, 97.015381%)" offset="0.492188"/><stop stop-opacity="1" stop-color="rgb(49.14093%, 49.865723%, 97.02301%)" offset="0.496094"/><stop stop-opacity="1" stop-color="rgb(49.787903%, 49.221802%, 97.032166%)" offset="0.5"/><stop stop-opacity="1" stop-color="rgb(50.43335%, 48.577881%, 97.039795%)" offset="0.503906"/><stop stop-opacity="1" stop-color="rgb(51.080322%, 47.93396%, 97.047424%)" offset="0.507812"/><stop stop-opacity="1" stop-color="rgb(51.725769%, 47.290039%, 97.055054%)" offset="0.511719"/><stop stop-opacity="1" stop-color="rgb(52.372742%, 46.646118%, 97.064209%)" offset="0.515625"/><stop stop-opacity="1" stop-color="rgb(53.019714%, 46.002197%, 97.071838%)" offset="0.519531"/><stop stop-opacity="1" stop-color="rgb(53.666687%, 45.359802%, 97.080994%)" offset="0.523438"/><stop stop-opacity="1" stop-color="rgb(54.312134%, 44.715881%, 97.088623%)" offset="0.527344"/><stop stop-opacity="1" stop-color="rgb(54.959106%, 44.07196%, 97.096252%)" offset="0.53125"/><stop stop-opacity="1" stop-color="rgb(55.604553%, 43.42804%, 97.103882%)" offset="0.535156"/><stop stop-opacity="1" stop-color="rgb(56.251526%, 42.784119%, 97.113037%)" offset="0.539062"/><stop stop-opacity="1" stop-color="rgb(56.896973%, 42.140198%, 97.120667%)" offset="0.542969"/><stop stop-opacity="1" stop-color="rgb(57.543945%, 41.496277%, 97.129822%)" offset="0.546875"/><stop stop-opacity="1" stop-color="rgb(58.190918%, 40.852356%, 97.137451%)" offset="0.550781"/><stop stop-opacity="1" stop-color="rgb(58.837891%, 40.208435%, 97.145081%)" offset="0.554688"/><stop stop-opacity="1" stop-color="rgb(59.483337%, 39.564514%, 97.15271%)" offset="0.558594"/><stop stop-opacity="1" stop-color="rgb(60.13031%, 38.922119%, 97.161865%)" offset="0.5625"/><stop stop-opacity="1" stop-color="rgb(60.775757%, 38.278198%, 97.169495%)" offset="0.566406"/><stop stop-opacity="1" stop-color="rgb(61.422729%, 37.634277%, 97.17865%)" offset="0.570312"/><stop stop-opacity="1" stop-color="rgb(62.068176%, 36.990356%, 97.186279%)" offset="0.574219"/><stop stop-opacity="1" stop-color="rgb(62.715149%, 36.346436%, 97.193909%)" offset="0.578125"/><stop stop-opacity="1" stop-color="rgb(63.362122%, 35.702515%, 97.201538%)" offset="0.582031"/><stop stop-opacity="1" stop-color="rgb(64.009094%, 35.058594%, 97.210693%)" offset="0.585938"/><stop stop-opacity="1" stop-color="rgb(64.654541%, 34.414673%, 97.218323%)" offset="0.589844"/><stop stop-opacity="1" stop-color="rgb(65.301514%, 33.770752%, 97.227478%)" offset="0.59375"/><stop stop-opacity="1" stop-color="rgb(65.94696%, 33.126831%, 97.235107%)" offset="0.597656"/><stop stop-opacity="1" stop-color="rgb(66.593933%, 32.48291%, 97.244263%)" offset="0.601563"/><stop stop-opacity="1" stop-color="rgb(67.240906%, 31.838989%, 97.251892%)" offset="0.605469"/><stop stop-opacity="1" stop-color="rgb(67.887878%, 31.196594%, 97.259521%)" offset="0.609375"/><stop stop-opacity="1" stop-color="rgb(68.533325%, 30.552673%, 97.267151%)" offset="0.613281"/><stop stop-opacity="1" stop-color="rgb(69.180298%, 29.908752%, 97.276306%)" offset="0.617188"/><stop stop-opacity="1" stop-color="rgb(69.825745%, 29.264832%, 97.283936%)" offset="0.621094"/><stop stop-opacity="1" stop-color="rgb(70.472717%, 28.620911%, 97.293091%)" offset="0.625"/><stop stop-opacity="1" stop-color="rgb(71.118164%, 27.97699%, 97.30072%)" offset="0.628906"/><stop stop-opacity="1" stop-color="rgb(71.765137%, 27.333069%, 97.30835%)" offset="0.632813"/><stop stop-opacity="1" stop-color="rgb(72.412109%, 26.689148%, 97.315979%)" offset="0.636719"/><stop stop-opacity="1" stop-color="rgb(73.059082%, 26.045227%, 97.325134%)" offset="0.640625"/><stop stop-opacity="1" stop-color="rgb(73.704529%, 25.401306%, 97.332764%)" offset="0.644531"/><stop stop-opacity="1" stop-color="rgb(74.351501%, 24.757385%, 97.341919%)" offset="0.648438"/><stop stop-opacity="1" stop-color="rgb(74.996948%, 24.113464%, 97.349548%)" offset="0.652344"/><stop stop-opacity="1" stop-color="rgb(75.643921%, 23.471069%, 97.357178%)" offset="0.65625"/><stop stop-opacity="1" stop-color="rgb(76.289368%, 22.827148%, 97.364807%)" offset="0.660156"/><stop stop-opacity="1" stop-color="rgb(76.93634%, 22.183228%, 97.373962%)" offset="0.664062"/><stop stop-opacity="1" stop-color="rgb(77.583313%, 21.539307%, 97.381592%)" offset="0.667969"/><stop stop-opacity="1" stop-color="rgb(78.230286%, 20.895386%, 97.390747%)" offset="0.671875"/><stop stop-opacity="1" stop-color="rgb(78.875732%, 20.251465%, 97.398376%)" offset="0.675781"/><stop stop-opacity="1" stop-color="rgb(79.522705%, 19.607544%, 97.406006%)" offset="0.679688"/><stop stop-opacity="1" stop-color="rgb(80.168152%, 18.963623%, 97.413635%)" offset="0.683594"/><stop stop-opacity="1" stop-color="rgb(80.815125%, 18.319702%, 97.422791%)" offset="0.6875"/><stop stop-opacity="1" stop-color="rgb(81.460571%, 17.675781%, 97.43042%)" offset="0.691406"/><stop stop-opacity="1" stop-color="rgb(82.107544%, 17.03186%, 97.439575%)" offset="0.695313"/><stop stop-opacity="1" stop-color="rgb(82.754517%, 16.387939%, 97.447205%)" offset="0.699219"/><stop stop-opacity="1" stop-color="rgb(83.401489%, 15.745544%, 97.454834%)" offset="0.703125"/><stop stop-opacity="1" stop-color="rgb(84.046936%, 15.101624%, 97.462463%)" offset="0.707031"/><stop stop-opacity="1" stop-color="rgb(84.693909%, 14.457703%, 97.471619%)" offset="0.710938"/><stop stop-opacity="1" stop-color="rgb(85.339355%, 13.813782%, 97.479248%)" offset="0.714844"/><stop stop-opacity="1" stop-color="rgb(85.986328%, 13.169861%, 97.488403%)" offset="0.71875"/><stop stop-opacity="1" stop-color="rgb(86.633301%, 12.52594%, 97.496033%)" offset="0.722656"/><stop stop-opacity="1" stop-color="rgb(87.280273%, 11.882019%, 97.503662%)" offset="0.726563"/><stop stop-opacity="1" stop-color="rgb(87.92572%, 11.238098%, 97.511292%)" offset="0.730469"/><stop stop-opacity="1" stop-color="rgb(88.572693%, 10.594177%, 97.520447%)" offset="0.734375"/><stop stop-opacity="1" stop-color="rgb(89.21814%, 9.950256%, 97.528076%)" offset="0.738281"/><stop stop-opacity="1" stop-color="rgb(89.865112%, 9.306335%, 97.537231%)" offset="0.742188"/><stop stop-opacity="1" stop-color="rgb(90.510559%, 8.662415%, 97.544861%)" offset="0.746094"/><stop stop-opacity="1" stop-color="rgb(91.157532%, 8.02002%, 97.55249%)" offset="0.75"/><stop stop-opacity="1" stop-color="rgb(91.804504%, 7.376099%, 97.56012%)" offset="0.753906"/><stop stop-opacity="1" stop-color="rgb(92.451477%, 6.732178%, 97.569275%)" offset="0.757812"/><stop stop-opacity="1" stop-color="rgb(93.096924%, 6.088257%, 97.576904%)" offset="0.761719"/><stop stop-opacity="1" stop-color="rgb(93.743896%, 5.444336%, 97.58606%)" offset="0.765625"/><stop stop-opacity="1" stop-color="rgb(94.389343%, 4.800415%, 97.593689%)" offset="0.769531"/><stop stop-opacity="1" stop-color="rgb(95.036316%, 4.156494%, 97.601318%)" offset="0.773438"/><stop stop-opacity="1" stop-color="rgb(95.681763%, 3.512573%, 97.608948%)" offset="0.777344"/><stop stop-opacity="1" stop-color="rgb(96.328735%, 2.868652%, 97.618103%)" offset="0.78125"/><stop stop-opacity="1" stop-color="rgb(96.975708%, 2.224731%, 97.625732%)" offset="0.785156"/><stop stop-opacity="1" stop-color="rgb(97.622681%, 1.580811%, 97.634888%)" offset="0.789062"/><stop stop-opacity="1" stop-color="rgb(98.220825%, 0.984192%, 97.640991%)" offset="0.792969"/><stop stop-opacity="1" stop-color="rgb(98.81897%, 0.389099%, 97.648621%)" offset="0.796875"/><stop stop-opacity="1" stop-color="rgb(98.81897%, 0.389099%, 97.648621%)" offset="0.8125"/><stop stop-opacity="1" stop-color="rgb(98.81897%, 0.389099%, 97.648621%)" offset="0.875"/><stop stop-opacity="1" stop-color="rgb(98.81897%, 0.389099%, 97.648621%)" offset="1"/></linearGradient></defs><rect x="-150" width="1800" fill="#ffffff" y="-149.999993" height="1799.99992" fill-opacity="1"/><rect x="-150" width="1800" fill="#000000" y="-149.999993" height="1799.99992" fill-opacity="1"/><g fill="#ffffff" fill-opacity="1"><g transform="translate(535.746085, 916.489461)"><g><path d="M 62.9375 0.21875 C 57.269531 1.269531 54.0625 1.796875 53.3125 1.796875 C 37.78125 1.796875 25.984375 -2.644531 17.921875 -11.53125 C 9.859375 -20.414062 5.828125 -33.445312 5.828125 -50.625 L 5.828125 -143.578125 C 5.828125 -160.160156 9.894531 -172.742188 18.03125 -181.328125 C 26.164062 -189.910156 37.925781 -194.203125 53.3125 -194.203125 C 68.695312 -194.203125 80.457031 -189.910156 88.59375 -181.328125 C 96.726562 -172.742188 100.796875 -160.160156 100.796875 -143.578125 L 100.796875 -50.625 C 100.796875 -34.789062 97.210938 -22.242188 90.046875 -12.984375 L 106.625 -2.46875 L 93.625 20.390625 Z M 53.3125 -33.59375 C 57.039062 -33.59375 59.425781 -35.382812 60.46875 -38.96875 C 61.519531 -42.5625 62.046875 -47.191406 62.046875 -52.859375 L 62.046875 -142.90625 C 62.046875 -147.832031 61.410156 -151.710938 60.140625 -154.546875 C 58.867188 -157.390625 56.519531 -158.8125 53.09375 -158.8125 C 46.96875 -158.8125 43.90625 -153.585938 43.90625 -143.140625 L 43.90625 -52.1875 C 43.90625 -46.8125 44.5 -42.367188 45.6875 -38.859375 C 46.882812 -35.347656 49.425781 -33.59375 53.3125 -33.59375 Z M 53.3125 -33.59375 "/></g></g></g><g fill="#ffffff" fill-opacity="1"><g transform="translate(646.399433, 916.489461)"><g><path d="M 4.703125 2.46875 L 23.515625 2.46875 C 26.203125 2.46875 27.546875 1.347656 27.546875 -0.890625 C 27.546875 -1.941406 27.472656 -2.765625 27.328125 -3.359375 L 1.796875 -163.96875 L 39.203125 -163.96875 L 46.59375 -84 L 50.171875 -43.234375 L 54.4375 -84 L 63.171875 -163.96875 L 100.796875 -163.96875 L 70.34375 8.515625 C 69.289062 14.929688 67.160156 19.671875 63.953125 22.734375 C 60.742188 25.796875 55.703125 27.328125 48.828125 27.328125 L 4.703125 27.328125 Z M 4.703125 2.46875 "/></g></g></g><g fill="#ffffff" fill-opacity="1"><g transform="translate(749.660952, 916.489461)"><g><path d="M 28.671875 0 L 2.46875 -163.96875 L 41.65625 -163.96875 L 49.734375 -81.09375 L 51.078125 -54.4375 L 52.640625 -81.3125 L 61.59375 -163.96875 L 100.796875 -163.96875 L 74.140625 0 Z M 28.671875 0 "/></g></g></g><g fill="#ffffff" fill-opacity="1"><g transform="translate(852.922471, 916.489461)"><g><path d="M 55.546875 1.796875 C 22.847656 1.796875 6.5 -15.15625 6.5 -49.0625 L 6.5 -114.90625 C 6.5 -130.4375 10.863281 -142.796875 19.59375 -151.984375 C 28.332031 -161.171875 40.316406 -165.765625 55.546875 -165.765625 C 70.785156 -165.765625 82.769531 -161.171875 91.5 -151.984375 C 100.238281 -142.796875 104.609375 -130.4375 104.609375 -114.90625 L 104.609375 -49.0625 C 104.609375 -15.15625 88.253906 1.796875 55.546875 1.796875 Z M 55.546875 -28.453125 C 58.679688 -28.453125 60.992188 -29.570312 62.484375 -31.8125 C 63.984375 -34.050781 64.734375 -37.109375 64.734375 -40.984375 L 64.734375 -121.1875 C 64.734375 -130.738281 61.671875 -135.515625 55.546875 -135.515625 C 49.429688 -135.515625 46.375 -130.738281 46.375 -121.1875 L 46.375 -40.984375 C 46.375 -37.109375 47.117188 -34.050781 48.609375 -31.8125 C 50.097656 -29.570312 52.410156 -28.453125 55.546875 -28.453125 Z M 55.546875 -28.453125 "/></g></g></g><g fill="#6b6b7a" fill-opacity="1"><g transform="translate(657.515577, 1010.972173)"><g><path d="M 4.140625 0 L 4.140625 -39.203125 L 8.84375 -39.203125 L 8.84375 -3.75 L 27.109375 -3.75 L 27.109375 0 Z M 4.140625 0 "/></g></g></g><g fill="#6b6b7a" fill-opacity="1"><g transform="translate(711.439515, 1010.972173)"><g><path d="M 4.140625 0 L 4.140625 -39.203125 L 8.84375 -39.203125 L 8.84375 0 Z M 4.140625 0 "/></g></g></g><g fill="#6b6b7a" fill-opacity="1"><g transform="translate(748.957742, 1010.972173)"><g><path d="M 15.953125 0 L 1.234375 -39.203125 L 6.328125 -39.203125 L 18.703125 -4.984375 L 31.1875 -39.203125 L 36.171875 -39.203125 L 21.453125 0 Z M 15.953125 0 "/></g></g></g><g fill="#6b6b7a" fill-opacity="1"><g transform="translate(810.888561, 1010.972173)"><g><path d="M 4.140625 0 L 4.140625 -39.203125 L 28.390625 -39.203125 L 28.390625 -35.34375 L 8.84375 -35.34375 L 8.84375 -21.671875 L 26.71875 -21.671875 L 26.71875 -17.859375 L 8.84375 -17.859375 L 8.84375 -3.859375 L 28.390625 -3.859375 L 28.390625 0 Z M 4.140625 0 "/></g></g></g><g clip-path="url(#bf33ef43a3)"><g clip-path="url(#e86a1b9710)"><path fill="url(#b3e8e4dcb0)" d="M 614.648438 693.144531 L 614.648438 410.394531 L 885.339844 410.394531 L 885.339844 693.144531 Z M 614.648438 693.144531 " fill-rule="nonzero"/></g></g></svg>